<svg id="Layer_1" data-name="Layer 1" xmlns="http://www.w3.org/2000/svg" viewBox="0 0 1189.84 314.14"><path d="M0,220.21c-.12-1.39.16-2.09.83-2.09q12.06,0,17.74-1.74a11.81,11.81,0,0,0,7.87-6.78q2.18-5,2.18-15.48V33.05q-.34-10.44-2.35-15.31A11.86,11.86,0,0,0,18.77,11Q13.25,9.06,1.2,9C.75,9,.47,8.35.36,7s.17-2.09.84-2.09l14.73.35q12.72.71,21.09.69t21.76-.69l15.4-.35c.44,0,.67.7.67,2.09S74.62,9,74.18,9Q61.79,9,56.1,11a11.84,11.84,0,0,0-7.7,7q-2,5-2.34,15.48V192.73q.33,10.44,2.17,15.13t7.37,6.44Q61.12,216,73.17,216H117q19.08,0,28.29-11.66t12.21-33.22q0-1,1.68-1a4.79,4.79,0,0,1,1.84.35,1.15,1.15,0,0,1,.84,1,414.22,414.22,0,0,0-2.35,45.57,5.18,5.18,0,0,1-1.34,4c-.89.82-2.34,1.22-4.35,1.22H.86C.41,222.3.13,221.6,0,220.21Z"/><path d="M208.8,3.34c-4,18,29,57,27,73-3.65,29.2-47,30-54,0C176.5,53.65,209.68-.64,208.8,3.34Z"/><path d="M506.69,220.21c0,1.39-.33,2.09-1,2.09q-5.37,0-16.74-.7-12.74-.69-20.09-.69t-18.75.69q-10.71.71-16.06.7c-.9,0-1.34-.7-1.34-2.09s.44-2.09,1.34-2.09q12.7,0,17.74-2.43t5-8.7c0-3.48-1-8.11-3-13.92l-30.47-88.71H366.42L338.3,176q-6.36,16.69-6.36,26.09t6,12.7q6,3.3,18.74,3.3c.89,0,1.34.7,1.34,2.09s-.56,2.09-1.67,2.09q-4,0-15.4-.7-13.39-.69-20.42-.69-8,0-18.75.69-9.37.71-15.4.7c-.89,0-1.34-.7-1.34-2.09s.45-2.09,1.34-2.09q24.43,0,39.84-37.57l73-179.16c.44-.92,1.45-1.39,3-1.39q3,0,4,1.74l65.61,191.33q3.69,10.44,7,15.49a18.82,18.82,0,0,0,9.38,7.3q6,2.26,17.41,2.26C506.36,218.12,506.69,218.82,506.69,220.21ZM369.1,97.76H421l-24.1-70.28Z"/><path d="M691.82,7c0,1.39-.45,2.08-1.34,2.08q-10.71,0-18.08,5.05t-12,19L591.72,222c-.22.92-1.34,1.39-3.34,1.39-2.46,0-3.8-.47-4-1.39l-77-188.21q-5-13.56-11.21-19.13C492,10.9,486.72,9,480.24,9c-.67,0-1.06-.69-1.17-2.08s.28-2.09,1.17-2.09l13.06.35c6.25.47,10.6.69,13.06.69q9,0,21.76-.69l13.39-.35c.89,0,1.34.7,1.34,2.09S542.4,9,541.51,9q-19.43,0-19.42,11.14a24.6,24.6,0,0,0,2.34,10.09l70,168L653.32,31a32.26,32.26,0,0,0,2-10.09,9.42,9.42,0,0,0-5.52-9Q644.28,9,631.23,9c-.45,0-.67-.69-.67-2.08s.22-2.09.67-2.09l12.38.35q10.71.71,18.75.69c4.24,0,9-.22,14.4-.69l13.72-.35C691.37,4.87,691.82,5.57,691.82,7Z"/><path d="M748.23,212.38a95.16,95.16,0,0,1-35-38.44q-12.37-24.34-12.38-54.27,0-33,15.23-60.18A114,114,0,0,1,757.43,16.7Q783.55,1,815.35,1q29.79,0,52.06,13.75A91.54,91.54,0,0,1,901.72,52.7q12,24.19,12,54.45,0,34.44-15.4,61.75T857,211.34a110.62,110.62,0,0,1-56.75,15.13Q770.82,226.47,748.23,212.38Zm110.3-6.95q18.42-12,28.46-33.58t10-49.74q0-32-12.38-57.75T850.5,24A85.72,85.72,0,0,0,801.62,9.39q-24.43,0-43.68,11.83T728,55q-10.71,21.91-10.71,51.13,0,31.66,12.89,57.06T765.47,203a90.18,90.18,0,0,0,49.88,14.44Q840.12,217.43,858.53,205.43ZM974.2,306.83q-27.62-7.31-69.13-21.57-37.5-12.51-60.76-18.78t-40.68-6.26a112.22,112.22,0,0,0-27.11,3.48q-14.07,3.46-22.1,11.48h-.33c-.45,0-1-.53-1.68-1.57s-.89-1.68-.67-1.91q10.71-10.79,27.62-17.75a93.6,93.6,0,0,1,36-6.95q18.07,0,39.84,5.91t54.23,17.74q42.18,14.61,71.64,22.27a232.34,232.34,0,0,0,58.59,7.65q11.71,0,18.24-2.09a38.92,38.92,0,0,0,12.56-7,1.27,1.27,0,0,1,1-.35c.67,0,1.28.46,1.84,1.39s.5,1.51-.17,1.74a65.07,65.07,0,0,1-20.92,14.78q-11.55,5-27.62,5.05Q1001.81,314.14,974.2,306.83Z"/><path d="M1189.8,222.34l-36.33,0h-35.15q-8.71,0-32.31-30.09t-57.41-84a77.81,77.81,0,0,1-22.1,3.48q-6.36,0-13.72-.7l-.67,83.15q.33,10.78,2.34,15.65a11.33,11.33,0,0,0,7.7,6.61q5.69,1.76,18.75,1.74c.89,0,27.9,1.83,27.9,3.22s-26.9,1-27.57,1q-10,0-15.73-.35l-22.77-.35-22.09.35q-6,.35-16.4.35c-.9,0-21.44.44-21.44-1s20.54-3.22,21.44-3.22q13.05,0,19.41-1.91t8.87-6.78q2.52-4.87,2.51-15.31V33.05q-.33-10.44-2.51-15.31T964.32,11q-6-1.91-19.08-1.92c-.89,0-1.34-.69-1.34-2.08s.45-2.09,1.34-2.09l16.4.35q13.4.71,21.76.69,5.7,0,11.05-.34c3.57-.23,6.7-.47,9.37-.7a175.49,175.49,0,0,1,18.08-1q26.11,0,40.17,11.48t14.06,32a57.76,57.76,0,0,1-9.2,31.31,71.2,71.2,0,0,1-24.61,23.66q28.79,44.54,48,69.23t34.15,35.65c9.93,7.31,19.71,9.43,29,11C1154.8,218.34,1185.8,222.34,1189.8,222.34ZM1012.19,104q24.11,0,34.65-10.61t10.55-34.27q0-26.79-11.55-38.79t-31.64-12q-9.37,0-13.56,1.39t-6.19,6.61q-2,5.22-2.34,17.39v68.89Q1005.49,104,1012.19,104Z"/><path d="M0,220.21c-.12-1.39.16-2.09.83-2.09q12.06,0,17.74-1.74a11.81,11.81,0,0,0,7.87-6.78q2.18-5,2.18-15.48V33.05q-.34-10.44-2.35-15.31A11.86,11.86,0,0,0,18.77,11Q13.25,9.06,1.2,9C.75,9,.47,8.35.36,7s.17-2.09.84-2.09l14.73.35q12.72.71,21.09.69t21.76-.69l15.4-.35c.44,0,.67.7.67,2.09S74.62,9,74.18,9Q61.79,9,56.1,11a11.84,11.84,0,0,0-7.7,7q-2,5-2.34,15.48V192.73q.33,10.44,2.17,15.13t7.37,6.44Q61.12,216,73.17,216H117q19.08,0,28.29-11.66t12.21-33.22q0-1,1.68-1a4.79,4.79,0,0,1,1.84.35,1.15,1.15,0,0,1,.84,1,414.22,414.22,0,0,0-2.35,45.57,5.18,5.18,0,0,1-1.34,4c-.89.82-2.34,1.22-4.35,1.22H.86C.41,222.3.13,221.6,0,220.21Z"/><path d="M208.8,3.34c-4,18,29,57,27,73-3.65,29.2-47,30-54,0C176.5,53.65,209.68-.64,208.8,3.34Z"/><path d="M506.69,220.21c0,1.39-.33,2.09-1,2.09q-5.37,0-16.74-.7-12.74-.69-20.09-.69t-18.75.69q-10.71.71-16.06.7c-.9,0-1.34-.7-1.34-2.09s.44-2.09,1.34-2.09q12.7,0,17.74-2.43t5-8.7c0-3.48-1-8.11-3-13.92l-30.47-88.71H366.42L338.3,176q-6.36,16.69-6.36,26.09t6,12.7q6,3.3,18.74,3.3c.89,0,1.34.7,1.34,2.09s-.56,2.09-1.67,2.09q-4,0-15.4-.7-13.39-.69-20.42-.69-8,0-18.75.69-9.37.71-15.4.7c-.89,0-1.34-.7-1.34-2.09s.45-2.09,1.34-2.09q24.43,0,39.84-37.57l73-179.16c.44-.92,1.45-1.39,3-1.39q3,0,4,1.74l65.61,191.33q3.69,10.44,7,15.49a18.82,18.82,0,0,0,9.38,7.3q6,2.26,17.41,2.26C506.36,218.12,506.69,218.82,506.69,220.21ZM369.1,97.76H421l-24.1-70.28Z"/><path d="M691.82,7c0,1.39-.45,2.08-1.34,2.08q-10.71,0-18.08,5.05t-12,19L591.72,222c-.22.92-1.34,1.39-3.34,1.39-2.46,0-3.8-.47-4-1.39l-77-188.21q-5-13.56-11.21-19.13C492,10.9,486.72,9,480.24,9c-.67,0-1.06-.69-1.17-2.08s.28-2.09,1.17-2.09l13.06.35c6.25.47,10.6.69,13.06.69q9,0,21.76-.69l13.39-.35c.89,0,1.34.7,1.34,2.09S542.4,9,541.51,9q-19.43,0-19.42,11.14a24.6,24.6,0,0,0,2.34,10.09l70,168L653.32,31a32.26,32.26,0,0,0,2-10.09,9.42,9.42,0,0,0-5.52-9Q644.28,9,631.23,9c-.45,0-.67-.69-.67-2.08s.22-2.09.67-2.09l12.38.35q10.71.71,18.75.69c4.24,0,9-.22,14.4-.69l13.72-.35C691.37,4.87,691.82,5.57,691.82,7Z"/><path d="M748.23,212.38a95.16,95.16,0,0,1-35-38.44q-12.37-24.34-12.38-54.27,0-33,15.23-60.18A114,114,0,0,1,757.43,16.7Q783.55,1,815.35,1q29.79,0,52.06,13.75A91.54,91.54,0,0,1,901.72,52.7q12,24.19,12,54.45,0,34.44-15.4,61.75T857,211.34a110.62,110.62,0,0,1-56.75,15.13Q770.82,226.47,748.23,212.38Zm110.3-6.95q18.42-12,28.46-33.58t10-49.74q0-32-12.38-57.75T850.5,24A85.72,85.72,0,0,0,801.62,9.39q-24.43,0-43.68,11.83T728,55q-10.71,21.91-10.71,51.13,0,31.66,12.89,57.06T765.47,203a90.18,90.18,0,0,0,49.88,14.44Q840.12,217.43,858.53,205.43ZM974.2,306.83q-27.62-7.31-69.13-21.57-37.5-12.51-60.76-18.78t-40.68-6.26a112.22,112.22,0,0,0-27.11,3.48q-14.07,3.46-22.1,11.48h-.33c-.45,0-1-.53-1.68-1.57s-.89-1.68-.67-1.91q10.71-10.79,27.62-17.75a93.6,93.6,0,0,1,36-6.95q18.07,0,39.84,5.91t54.23,17.74q42.18,14.61,71.64,22.27a232.34,232.34,0,0,0,58.59,7.65q11.71,0,18.24-2.09a38.92,38.92,0,0,0,12.56-7,1.27,1.27,0,0,1,1-.35c.67,0,1.28.46,1.84,1.39s.5,1.51-.17,1.74a65.07,65.07,0,0,1-20.92,14.78q-11.55,5-27.62,5.05Q1001.81,314.14,974.2,306.83Z"/><path d="M1189.8,222.34l-36.33,0h-35.15q-8.71,0-32.31-30.09t-57.41-84a77.81,77.81,0,0,1-22.1,3.48q-6.36,0-13.72-.7l-.67,83.15q.33,10.78,2.34,15.65a11.33,11.33,0,0,0,7.7,6.61q5.69,1.76,18.75,1.74c.89,0,27.9,1.83,27.9,3.22s-26.9,1-27.57,1q-10,0-15.73-.35l-22.77-.35-22.09.35q-6,.35-16.4.35c-.9,0-21.44.44-21.44-1s20.54-3.22,21.44-3.22q13.05,0,19.41-1.91t8.87-6.78q2.52-4.87,2.51-15.31V33.05q-.33-10.44-2.51-15.31T964.32,11q-6-1.91-19.08-1.92c-.89,0-1.34-.69-1.34-2.08s.45-2.09,1.34-2.09l16.4.35q13.4.71,21.76.69,5.7,0,11.05-.34c3.57-.23,6.7-.47,9.37-.7a175.49,175.49,0,0,1,18.08-1q26.11,0,40.17,11.48t14.06,32a57.76,57.76,0,0,1-9.2,31.31,71.2,71.2,0,0,1-24.61,23.66q28.79,44.54,48,69.23t34.15,35.65c9.93,7.31,19.71,9.43,29,11C1154.8,218.34,1185.8,222.34,1189.8,222.34ZM1012.19,104q24.11,0,34.65-10.61t10.55-34.27q0-26.79-11.55-38.79t-31.64-12q-9.37,0-13.56,1.39t-6.19,6.61q-2,5.22-2.34,17.39v68.89Q1005.49,104,1012.19,104Z"/></svg>